{
  "accessors": [
    {
      "bufferView": 2,
      "componentType": 5126,
      "count": 280,
      "max": [
        0.9296879768371582,
        0.8359379768371582,
        2.328125
      ],
      "min": [
        -0.9316410422325134,
        0.5893549919128418,
        2.074218988418579
      ],
      "type": "VEC3"
    },
    {
      "bufferView": 2,
      "byteOffset": 3360,
      "componentType": 5126,
      "count": 280,
      "max": [
        0.9908783435821533,
        1.0,
        0.9587995409965515
      ],
      "min": [
        -0.990878164768219,
        -1.0,
        -0.009126604534685612
      ],
      "type": "VEC3"
    },
    {
      "bufferView": 1,
      "componentType": 5126,
      "count": 280,
      "max": [
        0.11157199740409851,
        0.6684569716453552
      ],
      "min": [
        0.016311999410390854,
        0.5705569982528687
      ],
      "type": "VEC2"
    },
    {
      "bufferView": 0,
      "componentType": 5125,
      "count": 576,
      "type": "SCALAR"
    },
    {
      "bufferView": 2,
      "byteOffset": 6720,
      "componentType": 5126,
      "count": 300,
      "max": [
        0.8525390028953552,
        0.8364260196685791,
        2.277344226837158
      ],
      "min": [
        -0.8544920086860657,
        0.6298829913139343,
        2.212891101837158
      ],
      "type": "VEC3"
    },
    {
      "bufferView": 2,
      "byteOffset": 10320,
      "componentType": 5126,
      "count": 300,
      "max": [
        1.0,
        0.8944230675697327,
        1.0
      ],
      "min": [
        -1.0,
        -0.8715818524360657,
        -1.0173560440307483e-05
      ],
      "type": "VEC3"
    },
    {
      "bufferView": 1,
      "byteOffset": 2240,
      "componentType": 5126,
      "count": 300,
      "max": [
        0.0524899996817112,
        0.5988770127296448
      ],
      "min": [
        0.011901999823749065,
        0.5803220272064209
      ],
      "type": "VEC2"
    },
    {
      "bufferView": 0,
      "byteOffset": 2304,
      "componentType": 5125,
      "count": 600,
      "type": "SCALAR"
    },
    {
      "bufferView": 2,
      "byteOffset": 13920,
      "componentType": 5126,
      "count": 221,
      "max": [
        0.9213870167732239,
        1.5087889432907104,
        -2.199218988418579
      ],
      "min": [
        -0.9233400225639343,
        0.22839400172233582,
        -2.488281011581421
      ],
      "type": "VEC3"
    },
    {
      "bufferView": 2,
      "byteOffset": 16572,
      "componentType": 5126,
      "count": 221,
      "max": [
        0.9932462573051453,
        0.6764855980873108,
        -0.04055340588092804
      ],
      "min": [
        -0.9955174326896667,
        -0.7186689376831055,
        -0.9987512230873108
      ],
      "type": "VEC3"
    },
    {
      "bufferView": 1,
      "byteOffset": 4640,
      "componentType": 5126,
      "count": 221,
      "max": [
        1.0390629768371582,
        0.6796879768371582
      ],
      "min": [
        0.009018000215291977,
        0.6306149959564209
      ],
      "type": "VEC2"
    },
    {
      "bufferView": 0,
      "byteOffset": 4704,
      "componentType": 5125,
      "count": 708,
      "type": "SCALAR"
    },
    {
      "bufferView": 2,
      "byteOffset": 19224,
      "componentType": 5126,
      "count": 1740,
      "max": [
        1.0064079761505127,
        0.600829005241394,
        1.9878289699554443
      ],
      "min": [
        -1.0080560445785522,
        -0.24096700549125671,
        -1.8204859495162964
      ],
      "type": "VEC3"
    },
    {
      "bufferView": 2,
      "byteOffset": 40104,
      "componentType": 5126,
      "count": 1740,
      "max": [
        0.999971330165863,
        0.9999985694885254,
        0.9946547746658325
      ],
      "min": [
        -0.999971330165863,
        -0.9999985694885254,
        -0.9946553707122803
      ],
      "type": "VEC3"
    },
    {
      "bufferView": 3,
      "componentType": 5126,
      "count": 1740,
      "max": [
        0.9999995827674866,
        0.6191791892051697,
        1.0,
        1.0
      ],
      "min": [
        -0.7142167091369629,
        -0.6191786527633667,
        -1.0,
        -1.0
      ],
      "type": "VEC4"
    },
    {
      "bufferView": 1,
      "byteOffset": 6408,
      "componentType": 5126,
      "count": 1740,
      "max": [
        1.0,
        1.0
      ],
      "min": [
        0.0,
        0.0
      ],
      "type": "VEC2"
    },
    {
      "bufferView": 0,
      "byteOffset": 7536,
      "componentType": 5125,
      "count": 4320,
      "type": "SCALAR"
    },
    {
      "bufferView": 2,
      "byteOffset": 60984,
      "componentType": 5126,
      "count": 5226,
      "max": [
        1.129883050918579,
        1.6171879768371582,
        2.591797351837158
      ],
      "min": [
        -1.1308590173721313,
        -0.02099600061774254,
        -2.568358898162842
      ],
      "type": "VEC3"
    },
    {
      "bufferView": 2,
      "byteOffset": 123696,
      "componentType": 5126,
      "count": 5226,
      "max": [
        1.0,
        1.0,
        1.0
      ],
      "min": [
        -0.9999951720237732,
        -0.9999534487724304,
        -1.0
      ],
      "type": "VEC3"
    },
    {
      "bufferView": 1,
      "byteOffset": 20328,
      "componentType": 5126,
      "count": 5226,
      "max": [
        1.9873050451278687,
        0.8972780108451843
      ],
      "min": [
        0.03451500087976456,
        0.00976600032299757
      ],
      "type": "VEC2"
    },
    {
      "bufferView": 0,
      "byteOffset": 24816,
      "componentType": 5125,
      "count": 13386,
      "type": "SCALAR"
    },
    {
      "bufferView": 2,
      "byteOffset": 186408,
      "componentType": 5126,
      "count": 804,
      "max": [
        0.6645510196685791,
        1.613281011581421,
        2.578125
      ],
      "min": [
        -0.6660159826278687,
        0.16569840908050537,
        -2.039062976837158
      ],
      "type": "VEC3"
    },
    {
      "bufferView": 2,
      "byteOffset": 196056,
      "componentType": 5126,
      "count": 804,
      "max": [
        0.9980717897415161,
        0.9997801184654236,
        1.0
      ],
      "min": [
        -0.9977402091026306,
        -0.9924672245979309,
        -0.924502968788147
      ],
      "type": "VEC3"
    },
    {
      "bufferView": 1,
      "byteOffset": 62136,
      "componentType": 5126,
      "count": 804,
      "max": [
        0.7119140028953552,
        0.8645020127296448
      ],
      "min": [
        0.03485099971294403,
        0.5395510196685791
      ],
      "type": "VEC2"
    },
    {
      "bufferView": 0,
      "byteOffset": 78360,
      "componentType": 5125,
      "count": 2232,
      "type": "SCALAR"
    },
    {
      "bufferView": 2,
      "byteOffset": 205704,
      "componentType": 5126,
      "count": 1584,
      "max": [
        0.9404300451278687,
        1.5322270393371582,
        2.439452886581421
      ],
      "min": [
        -0.9423829913139343,
        0.21130399405956268,
        -2.492187976837158
      ],
      "type": "VEC3"
    },
    {
      "bufferView": 2,
      "byteOffset": 224712,
      "componentType": 5126,
      "count": 1584,
      "max": [
        0.9999645352363586,
        0.9598464965820313,
        0.9987542033195496
      ],
      "min": [
        -0.9999709725379944,
        -0.9922721982002258,
        -0.9996804594993591
      ],
      "type": "VEC3"
    },
    {
      "bufferView": 1,
      "byteOffset": 68568,
      "componentType": 5126,
      "count": 1584,
      "max": [
        1.9677729606628418,
        0.9354860186576843
      ],
      "min": [
        0.07305900007486343,
        0.00976600032299757
      ],
      "type": "VEC2"
    },
    {
      "bufferView": 0,
      "byteOffset": 87288,
      "componentType": 5125,
      "count": 4644,
      "type": "SCALAR"
    },
    {
      "bufferView": 2,
      "byteOffset": 243720,
      "componentType": 5126,
      "count": 54,
      "max": [
        1.0166020393371582,
        1.0546879768371582,
        2.550781011581421
      ],
      "min": [
        -1.0185550451278687,
        0.13467299938201904,
        -2.507812976837158
      ],
      "type": "VEC3"
    },
    {
      "bufferView": 2,
      "byteOffset": 244368,
      "componentType": 5126,
      "count": 54,
      "max": [
        1.0,
        0.2929474413394928,
        0.9647088050842285
      ],
      "min": [
        -1.0,
        -0.07772941142320633,
        -0.9952870607376099
      ],
      "type": "VEC3"
    },
    {
      "bufferView": 3,
      "byteOffset": 27840,
      "componentType": 5126,
      "count": 54,
      "max": [
        0.9998831748962402,
        0.0036417674273252487,
        0.10637292265892029,
        1.0
      ],
      "min": [
        -0.9999140501022339,
        -0.9992745518684387,
        -1.0,
        -1.0
      ],
      "type": "VEC4"
    },
    {
      "bufferView": 1,
      "byteOffset": 81240,
      "componentType": 5126,
      "count": 54,
      "max": [
        0.9460272192955017,
        1.013399600982666
      ],
      "min": [
        -0.0026775002479553223,
        -0.02494579553604126
      ],
      "type": "VEC2"
    },
    {
      "bufferView": 1,
      "byteOffset": 81672,
      "componentType": 5126,
      "count": 54,
      "max": [
        0.9460272192955017,
        1.013399600982666
      ],
      "min": [
        -0.0026775002479553223,
        -0.02494579553604126
      ],
      "type": "VEC2"
    },
    {
      "bufferView": 1,
      "byteOffset": 82104,
      "componentType": 5126,
      "count": 54,
      "max": [
        0.9460272192955017,
        1.013399600982666
      ],
      "min": [
        -0.0026775002479553223,
        -0.02494579553604126
      ],
      "type": "VEC2"
    },
    {
      "bufferView": 0,
      "byteOffset": 105864,
      "componentType": 5125,
      "count": 120,
      "type": "SCALAR"
    },
    {
      "bufferView": 2,
      "byteOffset": 245016,
      "componentType": 5126,
      "count": 1248,
      "max": [
        0.9194329977035522,
        0.4071039855480194,
        1.7960560321807861
      ],
      "min": [
        -0.921081006526947,
        -0.047242000699043274,
        -1.628957986831665
      ],
      "type": "VEC3"
    },
    {
      "bufferView": 2,
      "byteOffset": 259992,
      "componentType": 5126,
      "count": 1248,
      "max": [
        0.9999962449073792,
        0.9984615445137024,
        0.9984956979751587
      ],
      "min": [
        -0.9999962449073792,
        -0.9984615445137024,
        -0.9984958171844482
      ],
      "type": "VEC3"
    },
    {
      "bufferView": 3,
      "byteOffset": 28704,
      "componentType": 5126,
      "count": 1248,
      "max": [
        0.9997096657752991,
        0.9998979568481445,
        0.9998880624771118,
        1.0
      ],
      "min": [
        -0.9997095465660095,
        -0.999897837638855,
        -0.9998881220817566,
        -1.0
      ],
      "type": "VEC4"
    },
    {
      "bufferView": 1,
      "byteOffset": 82536,
      "componentType": 5126,
      "count": 1248,
      "max": [
        0.9887700080871582,
        0.9933429956436157
      ],
      "min": [
        0.01311499997973442,
        0.004883000161498785
      ],
      "type": "VEC2"
    },
    {
      "bufferView": 1,
      "byteOffset": 92520,
      "componentType": 5126,
      "count": 1248,
      "max": [
        0.9887700080871582,
        0.9933429956436157
      ],
      "min": [
        0.01311499997973442,
        0.004883000161498785
      ],
      "type": "VEC2"
    },
    {
      "bufferView": 0,
      "byteOffset": 106344,
      "componentType": 5125,
      "count": 3072,
      "type": "SCALAR"
    },
    {
      "bufferView": 2,
      "byteOffset": 274968,
      "componentType": 5126,
      "count": 1128,
      "max": [
        0.9351190328598022,
        0.35388100147247314,
        1.4909420013427734
      ],
      "min": [
        -0.9367669820785522,
        -0.04370199888944626,
        -1.3619290590286255
      ],
      "type": "VEC3"
    },
    {
      "bufferView": 2,
      "byteOffset": 288504,
      "componentType": 5126,
      "count": 1128,
      "max": [
        0.9999991655349731,
        0.995198667049408,
        0.9984337091445923
      ],
      "min": [
        -0.9999992847442627,
        -0.9992464184761047,
        -0.9991340041160583
      ],
      "type": "VEC3"
    },
    {
      "bufferView": 3,
      "byteOffset": 48672,
      "componentType": 5126,
      "count": 1128,
      "max": [
        0.9999712109565735,
        0.9934496879577637,
        0.9991505742073059,
        1.0
      ],
      "min": [
        -0.9999712109565735,
        -0.978797972202301,
        -0.9959098100662231,
        -1.0
      ],
      "type": "VEC4"
    },
    {
      "bufferView": 1,
      "byteOffset": 102504,
      "componentType": 5126,
      "count": 1128,
      "max": [
        0.5390629768371582,
        0.9901049733161926
      ],
      "min": [
        0.004294999875128269,
        0.005371000152081251
      ],
      "type": "VEC2"
    },
    {
      "bufferView": 1,
      "byteOffset": 111528,
      "componentType": 5126,
      "count": 1128,
      "max": [
        0.5390629768371582,
        0.9901049733161926
      ],
      "min": [
        0.004294999875128269,
        0.005371000152081251
      ],
      "type": "VEC2"
    },
    {
      "bufferView": 0,
      "byteOffset": 118632,
      "componentType": 5125,
      "count": 1800,
      "type": "SCALAR"
    },
    {
      "bufferView": 2,
      "byteOffset": 302040,
      "componentType": 5126,
      "count": 1185,
      "max": [
        1.0146479606628418,
        1.4755860567092896,
        2.476562976837158
      ],
      "min": [
        -1.015625,
        -0.06579600274562836,
        -2.541016101837158
      ],
      "type": "VEC3"
    },
    {
      "bufferView": 2,
      "byteOffset": 316260,
      "componentType": 5126,
      "count": 1185,
      "max": [
        1.0,
        0.9999944567680359,
        1.0
      ],
      "min": [
        -1.0,
        -1.0,
        -1.0
      ],
      "type": "VEC3"
    },
    {
      "bufferView": 1,
      "byteOffset": 120552,
      "componentType": 5126,
      "count": 1185,
      "max": [
        1.745116949081421,
        0.8789060115814209
      ],
      "min": [
        0.0021460000425577164,
        0.016112999990582466
      ],
      "type": "VEC2"
    },
    {
      "bufferView": 0,
      "byteOffset": 125832,
      "componentType": 5125,
      "count": 2781,
      "type": "SCALAR"
    },
    {
      "bufferView": 2,
      "byteOffset": 330480,
      "componentType": 5126,
      "count": 12,
      "max": [
        0.6196290254592896,
        0.8393549919128418,
        2.5625
      ],
      "min": [
        -0.6206049919128418,
        0.15869100391864777,
        2.330077886581421
      ],
      "type": "VEC3"
    },
    {
      "bufferView": 2,
      "byteOffset": 330624,
      "componentType": 5126,
      "count": 12,
      "max": [
        0.17733706533908844,
        0.23998580873012543,
        0.9772365093231201
      ],
      "min": [
        -0.17778120934963226,
        -0.25666344165802,
        0.9543588757514954
      ],
      "type": "VEC3"
    },
    {
      "bufferView": 3,
      "byteOffset": 66720,
      "componentType": 5126,
      "count": 12,
      "max": [
        1.0,
        0.04797058179974556,
        0.19010576605796814,
        1.0
      ],
      "min": [
        0.9805832505226135,
        -0.04812946170568466,
        -0.1897261142730713,
        1.0
      ],
      "type": "VEC4"
    },
    {
      "bufferView": 1,
      "byteOffset": 130032,
      "componentType": 5126,
      "count": 12,
      "max": [
        10.238487243652344,
        6.656476974487305
      ],
      "min": [
        -10.23719596862793,
        -5.5067009925842285
      ],
      "type": "VEC2"
    },
    {
      "bufferView": 0,
      "byteOffset": 136956,
      "componentType": 5125,
      "count": 24,
      "type": "SCALAR"
    },
    {
      "bufferView": 2,
      "byteOffset": 330768,
      "componentType": 5126,
      "count": 142,
      "max": [
        0.8823239803314209,
        1.4677729606628418,
        -2.197266101837158
      ],
      "min": [
        -0.8837890028953552,
        0.7255859971046448,
        -2.449218988418579
      ],
      "type": "VEC3"
    },
    {
      "bufferView": 2,
      "byteOffset": 332472,
      "componentType": 5126,
      "count": 142,
      "max": [
        0.8884865641593933,
        0.5308926105499268,
        -0.12337947636842728
      ],
      "min": [
        -0.888486385345459,
        0.013883390463888645,
        -0.9993758201599121
      ],
      "type": "VEC3"
    },
    {
      "bufferView": 3,
      "byteOffset": 66912,
      "componentType": 5126,
      "count": 142,
      "max": [
        0.9999505877494812,
        0.28641581535339355,
        0.8200420141220093,
        1.0
      ],
      "min": [
        -0.9999507665634155,
        -0.259337455034256,
        -0.9395002126693726,
        -1.0
      ],
      "type": "VEC4"
    },
    {
      "bufferView": 1,
      "byteOffset": 130128,
      "componentType": 5126,
      "count": 142,
      "max": [
        0.6455079913139343,
        0.9370729923248291
      ],
      "min": [
        0.1154789999127388,
        0.06933599710464478
      ],
      "type": "VEC2"
    },
    {
      "bufferView": 1,
      "byteOffset": 131264,
      "componentType": 5126,
      "count": 142,
      "max": [
        0.6455079913139343,
        0.9370729923248291
      ],
      "min": [
        0.1154789999127388,
        0.06933599710464478
      ],
      "type": "VEC2"
    },
    {
      "bufferView": 0,
      "byteOffset": 137052,
      "componentType": 5125,
      "count": 420,
      "type": "SCALAR"
    },
    {
      "bufferView": 2,
      "byteOffset": 334176,
      "componentType": 5126,
      "count": 2582,
      "max": [
        0.9370120167732239,
        1.5087889432907104,
        2.435547113418579
      ],
      "min": [
        -0.9384769797325134,
        0.21130399405956268,
        -2.488281011581421
      ],
      "type": "VEC3"
    },
    {
      "bufferView": 2,
      "byteOffset": 365160,
      "componentType": 5126,
      "count": 2582,
      "max": [
        1.0,
        1.0,
        1.0
      ],
      "min": [
        -1.0,
        -1.0,
        -1.0
      ],
      "type": "VEC3"
    },
    {
      "bufferView": 3,
      "byteOffset": 69184,
      "componentType": 5126,
      "count": 2582,
      "max": [
        1.0,
        1.0,
        1.0,
        1.0
      ],
      "min": [
        -1.0,
        -1.0,
        -1.0,
        -1.0
      ],
      "type": "VEC4"
    },
    {
      "bufferView": 1,
      "byteOffset": 132400,
      "componentType": 5126,
      "count": 2582,
      "max": [
        1.604491949081421,
        0.9928510189056396
      ],
      "min": [
        0.004608000162988901,
        0.0019529999699443579
      ],
      "type": "VEC2"
    },
    {
      "bufferView": 1,
      "byteOffset": 153056,
      "componentType": 5126,
      "count": 2582,
      "max": [
        1.604491949081421,
        0.9928510189056396
      ],
      "min": [
        0.004608000162988901,
        0.0019529999699443579
      ],
      "type": "VEC2"
    },
    {
      "bufferView": 0,
      "byteOffset": 138732,
      "componentType": 5125,
      "count": 5418,
      "type": "SCALAR"
    },
    {
      "bufferView": 2,
      "byteOffset": 396144,
      "componentType": 5126,
      "count": 7108,
      "max": [
        1.144531011581421,
        1.6123050451278687,
        2.587891101837158
      ],
      "min": [
        -1.145508050918579,
        0.145019993185997,
        -2.591797113418579
      ],
      "type": "VEC3"
    },
    {
      "bufferView": 2,
      "byteOffset": 481440,
      "componentType": 5126,
      "count": 7108,
      "max": [
        1.0,
        1.0,
        1.0
      ],
      "min": [
        -1.0,
        -1.0,
        -1.0
      ],
      "type": "VEC3"
    },
    {
      "bufferView": 1,
      "byteOffset": 173712,
      "componentType": 5126,
      "count": 7108,
      "max": [
        1.9707030057907104,
        0.9963909983634949
      ],
      "min": [
        0.03243999928236008,
        0.08300799876451492
      ],
      "type": "VEC2"
    },
    {
      "bufferView": 0,
      "byteOffset": 160404,
      "componentType": 5125,
      "count": 25812,
      "type": "SCALAR"
    },
    {
      "bufferView": 2,
      "byteOffset": 566736,
      "componentType": 5126,
      "count": 9812,
      "max": [
        1.000182032585144,
        0.4916990399360657,
        1.8826040029525757
      ],
      "min": [
        -1.001829981803894,
        -0.13183699548244476,
        -1.7152620553970337
      ],
      "type": "VEC3"
    },
    {
      "bufferView": 2,
      "byteOffset": 684480,
      "componentType": 5126,
      "count": 9812,
      "max": [
        1.0,
        1.0,
        1.0
      ],
      "min": [
        -1.0,
        -0.9965469241142273,
        -1.0
      ],
      "type": "VEC3"
    },
    {
      "bufferView": 3,
      "byteOffset": 110496,
      "componentType": 5126,
      "count": 9812,
      "max": [
        1.0,
        1.0,
        1.0,
        1.0
      ],
      "min": [
        -1.0,
        -1.0,
        -1.0,
        -1.0
      ],
      "type": "VEC4"
    },
    {
      "bufferView": 1,
      "byteOffset": 230576,
      "componentType": 5126,
      "count": 9812,
      "max": [
        0.9624861478805542,
        0.9261571168899536
      ],
      "min": [
        0.015605099499225616,
        0.025081072002649307
      ],
      "type": "VEC2"
    },
    {
      "bufferView": 1,
      "byteOffset": 309072,
      "componentType": 5126,
      "count": 9812,
      "max": [
        0.9624861478805542,
        0.9261571168899536
      ],
      "min": [
        0.015605099499225616,
        0.025081072002649307
      ],
      "type": "VEC2"
    },
    {
      "bufferView": 0,
      "byteOffset": 263652,
      "componentType": 5125,
      "count": 26400,
      "type": "SCALAR"
    },
    {
      "bufferView": 2,
      "byteOffset": 802224,
      "componentType": 5126,
      "count": 112,
      "max": [
        0.21911600232124329,
        0.8447269797325134,
        -2.441406011581421
      ],
      "min": [
        -0.22082500159740448,
        0.7060549855232239,
        -2.464843988418579
      ],
      "type": "VEC3"
    },
    {
      "bufferView": 2,
      "byteOffset": 803568,
      "componentType": 5126,
      "count": 112,
      "max": [
        0.9999527335166931,
        0.9922583103179932,
        0.12419360131025314
      ],
      "min": [
        -0.9999458193778992,
        -0.9922861456871033,
        -0.9962857961654663
      ],
      "type": "VEC3"
    },
    {
      "bufferView": 1,
      "byteOffset": 387568,
      "componentType": 5126,
      "count": 112,
      "max": [
        0.8598629832267761,
        0.7615969777107239
      ],
      "min": [
        0.8408200144767761,
        0.6384279727935791
      ],
      "type": "VEC2"
    },
    {
      "bufferView": 0,
      "byteOffset": 369252,
      "componentType": 5125,
      "count": 432,
      "type": "SCALAR"
    },
    {
      "bufferView": 2,
      "byteOffset": 804912,
      "componentType": 5126,
      "count": 4051,
      "max": [
        1.0136719942092896,
        1.5839840173721313,
        2.421875
      ],
      "min": [
        -1.015625,
        0.14270000159740448,
        -2.5
      ],
      "type": "VEC3"
    },
    {
      "bufferView": 2,
      "byteOffset": 853524,
      "componentType": 5126,
      "count": 4051,
      "max": [
        1.0,
        0.9999998211860657,
        1.0
      ],
      "min": [
        -1.0,
        -1.0,
        -1.0
      ],
      "type": "VEC3"
    },
    {
      "bufferView": 3,
      "byteOffset": 267488,
      "componentType": 5126,
      "count": 4051,
      "max": [
        1.0,
        1.0,
        1.0,
        1.0
      ],
      "min": [
        -1.0,
        -0.9999969005584717,
        -1.0,
        -1.0
      ],
      "type": "VEC4"
    },
    {
      "bufferView": 1,
      "byteOffset": 388464,
      "componentType": 5126,
      "count": 4051,
      "max": [
        0.9824219942092896,
        0.9938579797744751
      ],
      "min": [
        0.003659999929368496,
        0.05859399959445
      ],
      "type": "VEC2"
    },
    {
      "bufferView": 1,
      "byteOffset": 420872,
      "componentType": 5126,
      "count": 4051,
      "max": [
        0.9824219942092896,
        0.9938579797744751
      ],
      "min": [
        0.003659999929368496,
        0.05859399959445
      ],
      "type": "VEC2"
    },
    {
      "bufferView": 0,
      "byteOffset": 370980,
      "componentType": 5125,
      "count": 9519,
      "type": "SCALAR"
    },
    {
      "bufferView": 2,
      "byteOffset": 902136,
      "componentType": 5126,
      "count": 338,
      "max": [
        1.129883050918579,
        1.4970699548721313,
        1.3134770393371582
      ],
      "min": [
        -1.1308590173721313,
        0.9907230138778687,
        -2.453125
      ],
      "type": "VEC3"
    },
    {
      "bufferView": 2,
      "byteOffset": 906192,
      "componentType": 5126,
      "count": 338,
      "max": [
        0.9730707406997681,
        0.9814705848693848,
        0.5728447437286377
      ],
      "min": [
        -0.9734266400337219,
        -0.19531448185443878,
        -0.9968810081481934
      ],
      "type": "VEC3"
    },
    {
      "bufferView": 1,
      "byteOffset": 453280,
      "componentType": 5126,
      "count": 338,
      "max": [
        1.7324219942092896,
        0.8581539988517761
      ],
      "min": [
        0.3896479904651642,
        0.00976600032299757
      ],
      "type": "VEC2"
    },
    {
      "bufferView": 0,
      "byteOffset": 409056,
      "componentType": 5125,
      "count": 960,
      "type": "SCALAR"
    },
    {
      "bufferView": 2,
      "byteOffset": 910248,
      "componentType": 5126,
      "count": 4572,
      "max": [
        1.144531011581421,
        1.6074219942092896,
        2.572266101837158
      ],
      "min": [
        -1.146484136581421,
        -0.02099600061774254,
        -2.580077886581421
      ],
      "type": "VEC3"
    },
    {
      "bufferView": 2,
      "byteOffset": 965112,
      "componentType": 5126,
      "count": 4572,
      "max": [
        0.99989253282547,
        0.9999975562095642,
        1.0
      ],
      "min": [
        -0.9998926520347595,
        -1.0,
        -1.0
      ],
      "type": "VEC3"
    },
    {
      "bufferView": 1,
      "byteOffset": 455984,
      "componentType": 5126,
      "count": 4572,
      "max": [
        1.9814449548721313,
        0.9733729958534241
      ],
      "min": [
        0.011970999650657177,
        0.004883000161498785
      ],
      "type": "VEC2"
    },
    {
      "bufferView": 0,
      "byteOffset": 412896,
      "componentType": 5125,
      "count": 12189,
      "type": "SCALAR"
    }
  ],
  "asset": {
    "extras": {
      "author": "Ddiaz Design (https://sketchfab.com/ddiaz-design)",
      "license": "CC-BY-NC-SA-4.0 (http://creativecommons.org/licenses/by-nc-sa/4.0/)",
      "source": "https://sketchfab.com/3d-models/2015-cadillac-escalade-esv-57204780d10648c59ceb3021e6f66116",
      "title": "2015 Cadillac Escalade ESV"
    },
    "generator": "Sketchfab-16.60.0",
    "version": "2.0"
  },
  "bufferViews": [
    {
      "buffer": 0,
      "byteLength": 461652,
      "name": "floatBufferViews",
      "target": 34963
    },
    {
      "buffer": 0,
      "byteLength": 492560,
      "byteOffset": 461652,
      "byteStride": 8,
      "name": "floatBufferViews",
      "target": 34962
    },
    {
      "buffer": 0,
      "byteLength": 1019976,
      "byteOffset": 954212,
      "byteStride": 12,
      "name": "floatBufferViews",
      "target": 34962
    },
    {
      "buffer": 0,
      "byteLength": 332304,
      "byteOffset": 1974188,
      "byteStride": 16,
      "name": "floatBufferViews",
      "target": 34962
    }
  ],
  "buffers": [
    {
      "byteLength": 2306492,
      "uri": "scene.bin"
    }
  ],
  "extensionsUsed": [
    "KHR_materials_specular",
    "KHR_materials_transmission",
    "KHR_materials_clearcoat"
  ],
  "images": [
    {
      "uri": "textures/tyre_normal.png"
    },
    {
      "uri": "textures/badges_baseColor.png"
    },
    {
      "uri": "textures/badges_normal.png"
    },
    {
      "uri": "textures/disk_baseColor.png"
    },
    {
      "uri": "textures/disk_metallicRoughness.png"
    },
    {
      "uri": "textures/disk_normal.png"
    },
    {
      "uri": "textures/calipers_baseColor.png"
    },
    {
      "uri": "textures/calipers_metallicRoughness.png"
    },
    {
      "uri": "textures/calipers_normal.png"
    },
    {
      "uri": "textures/grille_metallicRoughness.png"
    },
    {
      "uri": "textures/grille_normal.png"
    },
    {
      "uri": "textures/light_R_baseColor.png"
    },
    {
      "uri": "textures/light_R_normal.png"
    },
    {
      "uri": "textures/light_R_clearcoat_normal.png"
    },
    {
      "uri": "textures/light_baseColor.png"
    },
    {
      "uri": "textures/light_metallicRoughness.png"
    },
    {
      "uri": "textures/light_normal.png"
    },
    {
      "uri": "textures/material_baseColor.png"
    },
    {
      "uri": "textures/material_metallicRoughness.png"
    },
    {
      "uri": "textures/material_normal.png"
    },
    {
      "uri": "textures/internal_baseColor.png"
    },
    {
      "uri": "textures/internal_normal.png"
    }
  ],
  "materials": [
    {
      "alphaMode": "BLEND",
      "doubleSided": true,
      "extensions": {
        "KHR_materials_specular": {
          "specularColorFactor": [
            1.0,
            1.0,
            1.0
          ],
          "specularFactor": 0.778669039753264
        }
      },
      "name": "orange_glass",
      "pbrMetallicRoughness": {
        "baseColorFactor": [
          0.8193024440314856,
          0.18055372416648907,
          0.0,
          0.7664785264107471
        ],
        "metallicFactor": 0.48000146286160106,
        "roughnessFactor": 0.0
      }
    },
    {
      "alphaMode": "BLEND",
      "doubleSided": true,
      "extensions": {
        "KHR_materials_transmission": {
          "transmissionFactor": 1.0
        }
      },
      "name": "glass",
      "pbrMetallicRoughness": {
        "baseColorFactor": [
          0.0,
          0.0,
          0.0,
          0.25
        ],
        "metallicFactor": 0.0,
        "roughnessFactor": 0.0
      }
    },
    {
      "alphaMode": "BLEND",
      "doubleSided": true,
      "extensions": {
        "KHR_materials_specular": {
          "specularColorFactor": [
            1.0,
            1.0,
            1.0
          ],
          "specularFactor": 1.0
        }
      },
      "name": "red_glass",
      "pbrMetallicRoughness": {
        "baseColorFactor": [
          0.5,
          0.0,
          0.0,
          0.8761931464933987
        ],
        "metallicFactor": 0.937145713205983,
        "roughnessFactor": 0.0
      }
    },
    {
      "doubleSided": true,
      "extensions": {
        "KHR_materials_specular": {
          "specularColorFactor": [
            1.0,
            1.0,
            1.0
          ],
          "specularFactor": 0.16914337262742132
        }
      },
      "name": "tyre",
      "normalTexture": {
        "index": 0
      },
      "pbrMetallicRoughness": {
        "baseColorFactor": [
          0.024031858959787163,
          0.024031858959787163,
          0.024031858959787163,
          1.0
        ],
        "metallicFactor": 0.6384781363143202,
        "roughnessFactor": 0.24838170935378087
      }
    },
    {
      "doubleSided": true,
      "extensions": {
        "KHR_materials_specular": {
          "specularColorFactor": [
            1.0,
            1.0,
            1.0
          ],
          "specularFactor": 0.18133388596993819
        }
      },
      "name": "chrome",
      "pbrMetallicRoughness": {
        "baseColorFactor": [
          0.6053283849968216,
          0.6053283849968216,
          0.6053283849968216,
          1.0
        ],
        "metallicFactor": 0.7481927563969718,
        "roughnessFactor": 0.059428752544769654
      }
    },
    {
      "doubleSided": true,
      "name": "chrome_2",
      "pbrMetallicRoughness": {
        "baseColorFactor": [
          0.3806290697569302,
          0.3806290697569302,
          0.3806290697569302,
          1.0
        ],
        "metallicFactor": 0.7969548097670393,
        "roughnessFactor": 0.2118101693262303
      }
    },
    {
      "alphaMode": "BLEND",
      "doubleSided": true,
      "extensions": {
        "KHR_materials_specular": {
          "specularColorFactor": [
            1.0,
            1.0,
            1.0
          ],
          "specularFactor": 0.15085760261364606
        }
      },
      "name": "badges",
      "normalTexture": {
        "index": 2
      },
      "pbrMetallicRoughness": {
        "baseColorTexture": {
          "index": 1
        },
        "metallicFactor": 0.8030500664382977,
        "roughnessFactor": 0.23009593934000558
      }
    },
    {
      "doubleSided": true,
      "extensions": {
        "KHR_materials_specular": {
          "specularColorFactor": [
            1.0,
            1.0,
            1.0
          ],
          "specularFactor": 0.20571491265497188
        }
      },
      "name": "disk",
      "normalTexture": {
        "index": 5
      },
      "pbrMetallicRoughness": {
        "baseColorTexture": {
          "index": 3
        },
        "metallicRoughnessTexture": {
          "index": 4
        },
        "roughnessFactor": 0.19352439931245502
      }
    },
    {
      "doubleSided": true,
      "extensions": {
        "KHR_materials_specular": {
          "specularColorFactor": [
            1.0,
            1.0,
            1.0
          ],
          "specularFactor": 0.15085760261364606
        }
      },
      "name": "calipers",
      "normalTexture": {
        "index": 8
      },
      "pbrMetallicRoughness": {
        "baseColorTexture": {
          "index": 6
        },
        "metallicRoughnessTexture": {
          "index": 7
        },
        "roughnessFactor": 0.4373346661627921
      }
    },
    {
      "doubleSided": true,
      "extensions": {
        "KHR_materials_specular": {
          "specularColorFactor": [
            1.0,
            1.0,
            1.0
          ],
          "specularFactor": 0.17523862929867975
        }
      },
      "name": "chassis",
      "pbrMetallicRoughness": {
        "baseColorFactor": [
          0.0,
          0.0,
          0.0,
          1.0
        ],
        "metallicFactor": 0.0,
        "roughnessFactor": 0.6811449330131292
      }
    },
    {
      "doubleSided": true,
      "extensions": {
        "KHR_materials_specular": {
          "specularColorFactor": [
            1.0,
            1.0,
            1.0
          ],
          "specularFactor": 0.15085760261364606
        }
      },
      "name": "grille",
      "normalTexture": {
        "index": 10
      },
      "occlusionTexture": {
        "index": 9
      },
      "pbrMetallicRoughness": {
        "baseColorFactor": [
          0.0595238,
          0.0595238,
          0.0595238,
          1.0
        ],
        "metallicFactor": 0.8274310931233314,
        "metallicRoughnessTexture": {
          "index": 9
        },
        "roughnessFactor": 0.7908595530957808
      }
    },
    {
      "doubleSided": true,
      "extensions": {
        "KHR_materials_clearcoat": {
          "clearcoatFactor": 1.0,
          "clearcoatNormalTexture": {
            "index": 13
          },
          "clearcoatRoughnessFactor": 0.06552400921602808
        },
        "KHR_materials_specular": {
          "specularColorFactor": [
            1.0,
            1.0,
            1.0
          ],
          "specularFactor": 0.19961965598371345
        }
      },
      "name": "light_R",
      "normalTexture": {
        "index": 12
      },
      "pbrMetallicRoughness": {
        "baseColorTexture": {
          "index": 11
        },
        "metallicFactor": 0.7055259596981628,
        "roughnessFactor": 0.20571491265497188
      }
    },
    {
      "doubleSided": true,
      "extensions": {
        "KHR_materials_specular": {
          "specularColorFactor": [
            1.0,
            1.0,
            1.0
          ],
          "specularFactor": 0.18133388596993819
        }
      },
      "name": "light",
      "normalTexture": {
        "index": 16
      },
      "pbrMetallicRoughness": {
        "baseColorTexture": {
          "index": 14
        },
        "metallicRoughnessTexture": {
          "index": 15
        },
        "roughnessFactor": 0.16914337262742132
      }
    },
    {
      "doubleSided": true,
      "extensions": {
        "KHR_materials_specular": {
          "specularColorFactor": [
            1.0,
            1.0,
            1.0
          ],
          "specularFactor": 0.10209554924357864
        }
      },
      "name": "carpaint",
      "pbrMetallicRoughness": {
        "baseColorFactor": [
          0.855605185835103,
          0.855605185835103,
          0.855605185835103,
          1.0
        ],
        "metallicFactor": 0.041142982530994375,
        "roughnessFactor": 0.041142982530994375
      }
    },
    {
      "doubleSided": true,
      "extensions": {
        "KHR_materials_specular": {
          "specularColorFactor": [
            1.0,
            1.0,
            1.0
          ],
          "specularFactor": 0.11428606258609549
        }
      },
      "name": "material",
      "normalTexture": {
        "index": 19
      },
      "pbrMetallicRoughness": {
        "baseColorTexture": {
          "index": 17
        },
        "metallicRoughnessTexture": {
          "index": 18
        },
        "roughnessFactor": 0.0228572125172191
      }
    },
    {
      "doubleSided": true,
      "extensions": {
        "KHR_materials_specular": {
          "specularColorFactor": [
            1.0,
            1.0,
            1.0
          ],
          "specularFactor": 0.10209554924357864
        }
      },
      "name": "plastic",
      "pbrMetallicRoughness": {
        "baseColorFactor": [
          0.00699301,
          0.00699301,
          0.00699301,
          1.0
        ],
        "metallicFactor": 0.7238117297119381,
        "roughnessFactor": 0.3337153027513988
      }
    },
    {
      "doubleSided": true,
      "extensions": {
        "KHR_materials_specular": {
          "specularColorFactor": [
            1.0,
            1.0,
            1.0
          ],
          "specularFactor": 0.15085760261364606
        }
      },
      "name": "internal",
      "normalTexture": {
        "index": 21
      },
      "pbrMetallicRoughness": {
        "baseColorTexture": {
          "index": 20
        },
        "metallicFactor": 0.565335056259219,
        "roughnessFactor": 0.4556204361765674
      }
    },
    {
      "doubleSided": true,
      "name": "glass__surr",
      "pbrMetallicRoughness": {
        "baseColorFactor": [
          0.0,
          0.0,
          0.0,
          1.0
        ],
        "metallicFactor": 0.0,
        "roughnessFactor": 0.10573712634405641
      }
    }
  ],
  "meshes": [
    {
      "name": "car_cadillac_escalade_2015_Mesh:M_GlassColor_High_orange_glass_0",
      "primitives": [
        {
          "attributes": {
            "NORMAL": 1,
            "POSITION": 0,
            "TEXCOORD_0": 2
          },
          "indices": 3,
          "material": 0,
          "mode": 4
        }
      ]
    },
    {
      "name": "car_cadillac_escalade_2015_Mesh:M_GlassColor_High_glass_0",
      "primitives": [
        {
          "attributes": {
            "NORMAL": 5,
            "POSITION": 4,
            "TEXCOORD_0": 6
          },
          "indices": 7,
          "material": 1,
          "mode": 4
        }
      ]
    },
    {
      "name": "car_cadillac_escalade_2015_Mesh:M_GlassColor_High_red_glass_0",
      "primitives": [
        {
          "attributes": {
            "NORMAL": 9,
            "POSITION": 8,
            "TEXCOORD_0": 10
          },
          "indices": 11,
          "material": 2,
          "mode": 4
        }
      ]
    },
    {
      "name": "car_cadillac_escalade_2015_Mesh:M_Tire_High_tyre_0",
      "primitives": [
        {
          "attributes": {
            "NORMAL": 13,
            "POSITION": 12,
            "TANGENT": 14,
            "TEXCOORD_0": 15
          },
          "indices": 16,
          "material": 3,
          "mode": 4
        }
      ]
    },
    {
      "name": "car_cadillac_escalade_2015_Mesh:M_Opaque_Chrome_High_chrome_0",
      "primitives": [
        {
          "attributes": {
            "NORMAL": 18,
            "POSITION": 17,
            "TEXCOORD_0": 19
          },
          "indices": 20,
          "material": 4,
          "mode": 4
        }
      ]
    },
    {
      "name": "car_cadillac_escalade_2015_Mesh:M_Opaque_Chrome_High_chrome_2_0",
      "primitives": [
        {
          "attributes": {
            "NORMAL": 22,
            "POSITION": 21,
            "TEXCOORD_0": 23
          },
          "indices": 24,
          "material": 5,
          "mode": 4
        }
      ]
    },
    {
      "name": "car_cadillac_escalade_2015_Mesh:M_GlassLights_High_glass_0",
      "primitives": [
        {
          "attributes": {
            "NORMAL": 26,
            "POSITION": 25,
            "TEXCOORD_0": 27
          },
          "indices": 28,
          "material": 1,
          "mode": 4
        }
      ]
    },
    {
      "name": "car_cadillac_escalade_2015_Mesh:M_Badges_High_badges_0",
      "primitives": [
        {
          "attributes": {
            "NORMAL": 30,
            "POSITION": 29,
            "TANGENT": 31,
            "TEXCOORD_0": 32,
            "TEXCOORD_1": 33,
            "TEXCOORD_2": 34
          },
          "indices": 35,
          "material": 6,
          "mode": 4
        }
      ]
    },
    {
      "name": "car_cadillac_escalade_2015_Mesh:M_BrakeDisc_High_disk_0",
      "primitives": [
        {
          "attributes": {
            "NORMAL": 37,
            "POSITION": 36,
            "TANGENT": 38,
            "TEXCOORD_0": 39,
            "TEXCOORD_1": 40
          },
          "indices": 41,
          "material": 7,
          "mode": 4
        }
      ]
    },
    {
      "name": "car_cadillac_escalade_2015_Mesh:M_Caliper_High_calipers_0",
      "primitives": [
        {
          "attributes": {
            "NORMAL": 43,
            "POSITION": 42,
            "TANGENT": 44,
            "TEXCOORD_0": 45,
            "TEXCOORD_1": 46
          },
          "indices": 47,
          "material": 8,
          "mode": 4
        }
      ]
    },
    {
      "name": "car_cadillac_escalade_2015_Mesh:M_Chassis_High_chassis_0",
      "primitives": [
        {
          "attributes": {
            "NORMAL": 49,
            "POSITION": 48,
            "TEXCOORD_0": 50
          },
          "indices": 51,
          "material": 9,
          "mode": 4
        }
      ]
    },
    {
      "name": "car_cadillac_escalade_2015_Mesh:M_Grille_A_High_grille_0",
      "primitives": [
        {
          "attributes": {
            "NORMAL": 53,
            "POSITION": 52,
            "TANGENT": 54,
            "TEXCOORD_0": 55
          },
          "indices": 56,
          "material": 10,
          "mode": 4
        }
      ]
    },
    {
      "name": "car_cadillac_escalade_2015_Mesh:M_LightRefracted_High_light_R_0",
      "primitives": [
        {
          "attributes": {
            "NORMAL": 58,
            "POSITION": 57,
            "TANGENT": 59,
            "TEXCOORD_0": 60,
            "TEXCOORD_1": 61
          },
          "indices": 62,
          "material": 11,
          "mode": 4
        }
      ]
    },
    {
      "name": "car_cadillac_escalade_2015_Mesh:M_LightCluster_High_light_0",
      "primitives": [
        {
          "attributes": {
            "NORMAL": 64,
            "POSITION": 63,
            "TANGENT": 65,
            "TEXCOORD_0": 66,
            "TEXCOORD_1": 67
          },
          "indices": 68,
          "material": 12,
          "mode": 4
        }
      ]
    },
    {
      "name": "car_cadillac_escalade_2015_Mesh:M_Paint_Metal_High_carpaint_0",
      "primitives": [
        {
          "attributes": {
            "NORMAL": 70,
            "POSITION": 69,
            "TEXCOORD_0": 71
          },
          "indices": 72,
          "material": 13,
          "mode": 4
        }
      ]
    },
    {
      "name": "car_cadillac_escalade_2015_Mesh:M_Rim_High_rim_0",
      "primitives": [
        {
          "attributes": {
            "NORMAL": 74,
            "POSITION": 73,
            "TANGENT": 75,
            "TEXCOORD_0": 76,
            "TEXCOORD_1": 77
          },
          "indices": 78,
          "material": 14,
          "mode": 4
        }
      ]
    },
    {
      "name": "car_cadillac_escalade_2015_Mesh:M_LicensePlate_High_plastic_0",
      "primitives": [
        {
          "attributes": {
            "NORMAL": 80,
            "POSITION": 79,
            "TEXCOORD_0": 81
          },
          "indices": 82,
          "material": 15,
          "mode": 4
        }
      ]
    },
    {
      "name": "car_cadillac_escalade_2015_Mesh:M_Internal_Interior_High_internal_0",
      "primitives": [
        {
          "attributes": {
            "NORMAL": 84,
            "POSITION": 83,
            "TANGENT": 85,
            "TEXCOORD_0": 86,
            "TEXCOORD_1": 87
          },
          "indices": 88,
          "material": 16,
          "mode": 4
        }
      ]
    },
    {
      "name": "car_cadillac_escalade_2015_Mesh:M_GlassSurround_High_glass__surr_0",
      "primitives": [
        {
          "attributes": {
            "NORMAL": 90,
            "POSITION": 89,
            "TEXCOORD_0": 91
          },
          "indices": 92,
          "material": 17,
          "mode": 4
        }
      ]
    },
    {
      "name": "car_cadillac_escalade_2015_Mesh:M_Opaque_PlasticSmooth_High_plastic_0",
      "primitives": [
        {
          "attributes": {
            "NORMAL": 94,
            "POSITION": 93,
            "TEXCOORD_0": 95
          },
          "indices": 96,
          "material": 15,
          "mode": 4
        }
      ]
    }
  ],
  "nodes": [
    {
      "children": [
        1
      ],
      "matrix": [
        1.0,
        0.0,
        0.0,
        0.0,
        0.0,
        2.220446049250313e-16,
        -1.0,
        0.0,
        0.0,
        1.0,
        2.220446049250313e-16,
        0.0,
        0.0,
        0.0,
        0.0,
        1.0
      ],
      "name": "Sketchfab_model"
    },
    {
      "children": [
        2
      ],
      "matrix": [
        0.009999999776482582,
        0.0,
        0.0,
        0.0,
        0.0,
        0.0,
        0.009999999776482582,
        0.0,
        0.0,
        -0.009999999776482582,
        0.0,
        0.0,
        0.0,
        0.0,
        0.0,
        1.0
      ],
      "name": "FINAL_MODEL_15.fbx"
    },
    {
      "children": [
        3,
        7,
        9,
        12,
        14,
        16,
        18,
        20,
        22,
        24,
        26,
        28,
        30,
        32,
        34,
        36,
        38
      ],
      "name": "RootNode"
    },
    {
      "children": [
        4,
        5,
        6
      ],
      "name": "car_cadillac_escalade_2015_Mesh:M_GlassColor_High"
    },
    {
      "mesh": 0,
      "name": "car_cadillac_escalade_2015_Mesh:M_GlassColor_High_orange_glass_0"
    },
    {
      "mesh": 1,
      "name": "car_cadillac_escalade_2015_Mesh:M_GlassColor_High_glass_0"
    },
    {
      "mesh": 2,
      "name": "car_cadillac_escalade_2015_Mesh:M_GlassColor_High_red_glass_0"
    },
    {
      "children": [
        8
      ],
      "name": "car_cadillac_escalade_2015_Mesh:M_Tire_High"
    },
    {
      "mesh": 3,
      "name": "car_cadillac_escalade_2015_Mesh:M_Tire_High_tyre_0"
    },
    {
      "children": [
        10,
        11
      ],
      "name": "car_cadillac_escalade_2015_Mesh:M_Opaque_Chrome_High"
    },
    {
      "mesh": 4,
      "name": "car_cadillac_escalade_2015_Mesh:M_Opaque_Chrome_High_chrome_0"
    },
    {
      "mesh": 5,
      "name": "car_cadillac_escalade_2015_Mesh:M_Opaque_Chrome_High_chrome_2_0"
    },
    {
      "children": [
        13
      ],
      "name": "car_cadillac_escalade_2015_Mesh:M_GlassLights_High"
    },
    {
      "mesh": 6,
      "name": "car_cadillac_escalade_2015_Mesh:M_GlassLights_High_glass_0"
    },
    {
      "children": [
        15
      ],
      "name": "car_cadillac_escalade_2015_Mesh:M_Badges_High"
    },
    {
      "mesh": 7,
      "name": "car_cadillac_escalade_2015_Mesh:M_Badges_High_badges_0"
    },
    {
      "children": [
        17
      ],
      "name": "car_cadillac_escalade_2015_Mesh:M_BrakeDisc_High"
    },
    {
      "mesh": 8,
      "name": "car_cadillac_escalade_2015_Mesh:M_BrakeDisc_High_disk_0"
    },
    {
      "children": [
        19
      ],
      "name": "car_cadillac_escalade_2015_Mesh:M_Caliper_High"
    },
    {
      "mesh": 9,
      "name": "car_cadillac_escalade_2015_Mesh:M_Caliper_High_calipers_0"
    },
    {
      "children": [
        21
      ],
      "name": "car_cadillac_escalade_2015_Mesh:M_Chassis_High"
    },
    {
      "mesh": 10,
      "name": "car_cadillac_escalade_2015_Mesh:M_Chassis_High_chassis_0"
    },
    {
      "children": [
        23
      ],
      "name": "car_cadillac_escalade_2015_Mesh:M_Grille_A_High"
    },
    {
      "mesh": 11,
      "name": "car_cadillac_escalade_2015_Mesh:M_Grille_A_High_grille_0"
    },
    {
      "children": [
        25
      ],
      "name": "car_cadillac_escalade_2015_Mesh:M_LightRefracted_High"
    },
    {
      "mesh": 12,
      "name": "car_cadillac_escalade_2015_Mesh:M_LightRefracted_High_light_R_0"
    },
    {
      "children": [
        27
      ],
      "name": "car_cadillac_escalade_2015_Mesh:M_LightCluster_High"
    },
    {
      "mesh": 13,
      "name": "car_cadillac_escalade_2015_Mesh:M_LightCluster_High_light_0"
    },
    {
      "children": [
        29
      ],
      "name": "car_cadillac_escalade_2015_Mesh:M_Paint_Metal_High"
    },
    {
      "mesh": 14,
      "name": "car_cadillac_escalade_2015_Mesh:M_Paint_Metal_High_carpaint_0"
    },
    {
      "children": [
        31
      ],
      "name": "car_cadillac_escalade_2015_Mesh:M_Rim_High"
    },
    {
      "mesh": 15,
      "name": "car_cadillac_escalade_2015_Mesh:M_Rim_High_rim_0"
    },
    {
      "children": [
        33
      ],
      "name": "car_cadillac_escalade_2015_Mesh:M_LicensePlate_High"
    },
    {
      "mesh": 16,
      "name": "car_cadillac_escalade_2015_Mesh:M_LicensePlate_High_plastic_0"
    },
    {
      "children": [
        35
      ],
      "name": "car_cadillac_escalade_2015_Mesh:M_Internal_Interior_High"
    },
    {
      "mesh": 17,
      "name": "car_cadillac_escalade_2015_Mesh:M_Internal_Interior_High_internal_0"
    },
    {
      "children": [
        37
      ],
      "name": "car_cadillac_escalade_2015_Mesh:M_GlassSurround_High"
    },
    {
      "mesh": 18,
      "name": "car_cadillac_escalade_2015_Mesh:M_GlassSurround_High_glass__surr_0"
    },
    {
      "children": [
        39
      ],
      "name": "car_cadillac_escalade_2015_Mesh:M_Opaque_PlasticSmooth_High"
    },
    {
      "mesh": 19,
      "name": "car_cadillac_escalade_2015_Mesh:M_Opaque_PlasticSmooth_High_plastic_0"
    }
  ],
  "samplers": [
    {
      "magFilter": 9729,
      "minFilter": 9987,
      "wrapS": 10497,
      "wrapT": 10497
    }
  ],
  "scene": 0,
  "scenes": [
    {
      "name": "Sketchfab_Scene",
      "nodes": [
        0
      ]
    }
  ],
  "textures": [
    {
      "sampler": 0,
      "source": 0
    },
    {
      "sampler": 0,
      "source": 1
    },
    {
      "sampler": 0,
      "source": 2
    },
    {
      "sampler": 0,
      "source": 3
    },
    {
      "sampler": 0,
      "source": 4
    },
    {
      "sampler": 0,
      "source": 5
    },
    {
      "sampler": 0,
      "source": 6
    },
    {
      "sampler": 0,
      "source": 7
    },
    {
      "sampler": 0,
      "source": 8
    },
    {
      "sampler": 0,
      "source": 9
    },
    {
      "sampler": 0,
      "source": 10
    },
    {
      "sampler": 0,
      "source": 11
    },
    {
      "sampler": 0,
      "source": 12
    },
    {
      "sampler": 0,
      "source": 13
    },
    {
      "sampler": 0,
      "source": 14
    },
    {
      "sampler": 0,
      "source": 15
    },
    {
      "sampler": 0,
      "source": 16
    },
    {
      "sampler": 0,
      "source": 17
    },
    {
      "sampler": 0,
      "source": 18
    },
    {
      "sampler": 0,
      "source": 19
    },
    {
      "sampler": 0,
      "source": 20
    },
    {
      "sampler": 0,
      "source": 21
    }
  ]
}
